# xmcd
#
# Track frame offsets:
#	150
#	11517
#	25060
#	37718
#	54463
#	73729
#	90554
#	104517
#	116072
#	129817
#	144838
#	154657
#	170328
#	186624
#
# Disc length: 2691 seconds
#
# Revision: 0
# Processed by: cddbd v1.5.1PL0 Copyright (c) Steve Scherf et al.
# Submitted via: audiograbber 1.83.01
#
DISCID=af0a810e
DTITLE=Various Artist - Pisnicky spravnejch TIRaku
DYEAR=1996
DGENRE=Music Of Drivers
TTITLE0=Pulnocni kovboj
TTITLE1=Sam se svou kytarou
TTITLE2=Hloupej dava
TTITLE3=Sto mil od Detroit City
TTITLE4=Velkej vuz
TTITLE5=I kdyz nejsem zadnej tramp
TTITLE6=Stovky mil
TTITLE7=Trochu rumu v lahvi jeste mam
TTITLE8=Nakladak
TTITLE9=Hotel Zalesak
TTITLE10=Drugstore
TTITLE11=Sbohem lasko ja jedu dal
TTITLE12=Good Bye
TTITLE13=Stary dobry Western
EXTD=
EXTT0=
EXTT1=
EXTT2=
EXTT3=
EXTT4=
EXTT5=
EXTT6=
EXTT7=
EXTT8=
EXTT9=
EXTT10=
EXTT11=
EXTT12=
EXTT13=
PLAYORDER=
